<?xml version="1.0" encoding="UTF-8" standalone="no"?>
<svg
   xmlns:dc="http://purl.org/dc/elements/1.1/"
   xmlns:cc="http://creativecommons.org/ns#"
   xmlns:rdf="http://www.w3.org/1999/02/22-rdf-syntax-ns#"
   xmlns:svg="http://www.w3.org/2000/svg"
   xmlns="http://www.w3.org/2000/svg"
   xmlns:sodipodi="http://sodipodi.sourceforge.net/DTD/sodipodi-0.dtd"
   xmlns:inkscape="http://www.inkscape.org/namespaces/inkscape"
   data-name="Layer 1"
   id="Layer_1"
   viewBox="0 0 48 48"
   version="1.1"
   sodipodi:docname="mic-high.svg"
   inkscape:version="1.0.2 (e86c870879, 2021-01-15, custom)">
  <metadata
     id="metadata116">
    <rdf:RDF>
      <cc:Work
         rdf:about="">
        <dc:format>image/svg+xml</dc:format>
        <dc:type
           rdf:resource="http://purl.org/dc/dcmitype/StillImage" />
      </cc:Work>
    </rdf:RDF>
  </metadata>
  <defs
     id="defs114" />
  <sodipodi:namedview
     pagecolor="#ffffff"
     bordercolor="#666666"
     borderopacity="1"
     objecttolerance="10"
     gridtolerance="10"
     guidetolerance="10"
     inkscape:pageopacity="0"
     inkscape:pageshadow="2"
     inkscape:window-width="1841"
     inkscape:window-height="1052"
     id="namedview112"
     showgrid="false"
     inkscape:zoom="8.7395833"
     inkscape:cx="36.907062"
     inkscape:cy="27.791415"
     inkscape:window-x="1005"
     inkscape:window-y="2188"
     inkscape:window-maximized="0"
     inkscape:current-layer="Layer_1" />
  <title
     id="title105" />
  <path
     d="M24,33a8,8,0,0,0,8-8V9A8,8,0,0,0,16,9V25A8,8,0,0,0,24,33ZM20,9a4,4,0,0,1,8,0V25a4,4,0,0,1-8,0Z"
     id="path107"
     style="fill:#ffffff" />
  <path
     d="M38,25a2,2,0,0,0-4,0,10,10,0,0,1-20,0,2,2,0,0,0-4,0A14,14,0,0,0,22,38.84V43H21a2,2,0,0,0,0,4h6a2,2,0,0,0,0-4H26V38.84A14,14,0,0,0,38,25Z"
     id="path109"
     style="fill:#ffffff" />
</svg>
